PathFileType	4	(X/Y/Z)	 2.2Hzhigh3min.trc
DataRate	CameraRate	NumFrames	NumMarkers	Units	OrigDataRate	OrigDataStartFrame	OrigNumFrames
200	200	8	43	m	200	501	1000
Frame#	Time	C7			LSH			RSH			MAN			RASI			LASI			HIPR			HIPL			RPSI			LPSI			COX			RTHI1			RTHI2			RTHI3			RTHI4			RLKN			RMKN			RSHA1			RSHA2			RSHA3			RSHA4			RLMAL			RMMAL			RHEEL			RMET5			RMET1			RTOE			LTHI1			LTHI2			LTHI3			LTHI4			LLKN			LMKN			LSHA1			LSHA2			LSHA3			LSHA4			LLMAL			LMMAL			LHEEL			LMET5			LMET1			LTOE			
		X1	Y1	Z1	X2	Y2	Z2	X3	Y3	Z3	X4	Y4	Z4	X5	Y5	Z5	X6	Y6	Z6	X7	Y7	Z7	X8	Y8	Z8	X9	Y9	Z9	X10	Y10	Z10	X11	Y11	Z11	X12	Y12	Z12	X13	Y13	Z13	X14	Y14	Z14	X15	Y15	Z15	X16	Y16	Z16	X17	Y17	Z17	X18	Y18	Z18	X19	Y19	Z19	X20	Y20	Z20	X21	Y21	Z21	X22	Y22	Z22	X23	Y23	Z23	X24	Y24	Z24	X25	Y25	Z25	X26	Y26	Z26	X27	Y27	Z27	X28	Y28	Z28	X29	Y29	Z29	X30	Y30	Z30	X31	Y31	Z31	X32	Y32	Z32	X33	Y33	Z33	X34	Y34	Z34	X35	Y35	Z35	X36	Y36	Z36	X37	Y37	Z37	X38	Y38	Z38	X39	Y39	Z39	X40	Y40	Z40	X41	Y41	Z41	X42	Y42	Z42	X43	Y43	Z43	
501	2.5050	-0.271486	1.334126	-0.526973	-0.198893	1.324207	-0.691548	-0.199651	1.317803	-0.373174	-0.135604	1.274209	-0.530362	-0.152445	0.841698	-0.385741	-0.149349	0.827796	-0.643895	-0.204430	0.896137	-0.371180	-0.199488	0.883906	-0.667850	-0.314029	0.880458	-0.487131	-0.314341	0.874981	-0.553044	-0.319953	0.874705	-0.520748	-0.245896	0.668271	-0.328279	-0.224890	0.612412	-0.324384	-0.163261	0.631186	-0.321584	-0.176186	0.691495	-0.324962	-0.195170	0.421104	-0.336524	-0.179664	0.402576	-0.454156	-0.307919	0.286958	-0.336222	-0.317037	0.247744	-0.344242	-0.267848	0.227948	-0.326622	-0.251597	0.269124	-0.322442	-0.330758	0.100047	-0.353949	-0.309807	0.098936	-0.431648	-0.382811	0.094235	-0.392393	-0.242741	0.031982	-0.323469	-0.202510	0.045085	-0.389571	-0.173951	0.033284	-0.386997	-0.254669	0.664860	-0.692832	-0.233626	0.607126	-0.697139	-0.171024	0.624140	-0.703867	-0.184825	0.682599	-0.701226	-0.192443	0.396136	-0.692008	-0.177861	0.388356	-0.577416	-0.319655	0.250272	-0.687087	-0.334374	0.214524	-0.675972	-0.276327	0.193547	-0.684933	-0.268429	0.235405	-0.696119	-0.338308	0.094944	-0.665246	-0.330291	0.100277	-0.586480	-0.394947	0.099233	-0.620032	-0.253935	0.034521	-0.677915	-0.218914	0.046828	-0.606778	-0.194285	0.035763	-0.604921	
502	2.5100	-0.270948	1.333709	-0.526988	-0.198418	1.323307	-0.691779	-0.199521	1.316709	-0.373127	-0.135107	1.273448	-0.530322	-0.151895	0.840945	-0.385207	-0.148811	0.826262	-0.644249	-0.204021	0.895384	-0.370728	-0.199543	0.881939	-0.668189	-0.313400	0.880316	-0.487050	-0.313744	0.874698	-0.552921	-0.319311	0.874420	-0.520641	-0.246257	0.668402	-0.328569	-0.225590	0.612392	-0.324873	-0.163862	0.630788	-0.321712	-0.176416	0.691186	-0.324856	-0.196417	0.420818	-0.337334	-0.181452	0.402656	-0.455168	-0.309002	0.286233	-0.337301	-0.317931	0.247169	-0.344995	-0.268650	0.227435	-0.327522	-0.252506	0.268599	-0.323452	-0.331145	0.099277	-0.354894	-0.309972	0.098095	-0.432409	-0.383121	0.093217	-0.393456	-0.242958	0.031957	-0.323673	-0.202500	0.045100	-0.389646	-0.173876	0.033298	-0.386833	-0.255241	0.664917	-0.691903	-0.234496	0.607084	-0.696370	-0.171871	0.623809	-0.703622	-0.185398	0.682334	-0.700909	-0.193713	0.395621	-0.691552	-0.178702	0.388447	-0.577041	-0.320475	0.249497	-0.686476	-0.335054	0.213693	-0.675399	-0.276963	0.192923	-0.684473	-0.269202	0.234821	-0.695577	-0.338605	0.094241	-0.664722	-0.330651	0.099391	-0.585953	-0.395330	0.098390	-0.619465	-0.254048	0.034483	-0.677893	-0.218950	0.046837	-0.606751	-0.194224	0.035743	-0.604914	
503	2.5150	-0.270436	1.334153	-0.526941	-0.197922	1.323369	-0.691991	-0.199210	1.316518	-0.373125	-0.134619	1.273602	-0.530321	-0.151134	0.841604	-0.384993	-0.148096	0.826243	-0.644348	-0.203232	0.896394	-0.370506	-0.199196	0.882037	-0.668484	-0.312542	0.881315	-0.487034	-0.312958	0.875567	-0.552838	-0.318424	0.875253	-0.520585	-0.246614	0.669268	-0.329049	-0.226277	0.613127	-0.325461	-0.164461	0.631160	-0.321903	-0.176654	0.691640	-0.324896	-0.197862	0.421296	-0.338213	-0.183284	0.403305	-0.456014	-0.310282	0.286182	-0.338549	-0.318881	0.247146	-0.345858	-0.269532	0.227672	-0.328396	-0.253607	0.268833	-0.324492	-0.331241	0.099171	-0.355685	-0.309863	0.097887	-0.433099	-0.383056	0.092952	-0.394507	-0.243116	0.032018	-0.323947	-0.202398	0.045095	-0.389714	-0.173748	0.033294	-0.386720	-0.255614	0.665655	-0.690910	-0.235130	0.607727	-0.695551	-0.172495	0.624201	-0.703320	-0.185774	0.682794	-0.700541	-0.194962	0.396002	-0.690896	-0.180000	0.389335	-0.576391	-0.321099	0.249526	-0.685771	-0.335541	0.213662	-0.674712	-0.277394	0.193108	-0.683872	-0.269776	0.235042	-0.694921	-0.338582	0.094273	-0.664203	-0.330627	0.099199	-0.585445	-0.395329	0.098312	-0.618872	-0.254100	0.034494	-0.677790	-0.218911	0.046849	-0.606712	-0.194116	0.035721	-0.604904	
504	2.5200	-0.269925	1.335448	-0.526863	-0.197401	1.324407	-0.692193	-0.198739	1.317258	-0.373149	-0.134063	1.274688	-0.530391	-0.150159	0.843584	-0.385040	-0.147212	0.827716	-0.644216	-0.202111	0.898934	-0.370539	-0.198419	0.884107	-0.668657	-0.311515	0.883255	-0.487051	-0.312027	0.877409	-0.552771	-0.317371	0.877021	-0.520542	-0.246985	0.670924	-0.329634	-0.226969	0.614661	-0.326084	-0.165071	0.632353	-0.322158	-0.176915	0.692903	-0.325068	-0.199623	0.422639	-0.339086	-0.185082	0.404578	-0.456704	-0.311730	0.286836	-0.339912	-0.319844	0.247705	-0.346816	-0.270527	0.228679	-0.329215	-0.254960	0.269926	-0.325358	-0.331148	0.099642	-0.356500	-0.309495	0.098327	-0.433753	-0.382716	0.093445	-0.395457	-0.243221	0.032161	-0.324281	-0.202221	0.045061	-0.389784	-0.173620	0.033305	-0.386622	-0.255812	0.667060	-0.689937	-0.235535	0.609057	-0.694704	-0.172906	0.625330	-0.702953	-0.185992	0.683985	-0.700158	-0.196176	0.397335	-0.690067	-0.181626	0.390963	-0.575457	-0.321611	0.250369	-0.684996	-0.335912	0.214446	-0.673940	-0.277709	0.194110	-0.683165	-0.270224	0.236060	-0.694174	-0.338329	0.094984	-0.663746	-0.330313	0.099712	-0.584992	-0.394995	0.098962	-0.618278	-0.254079	0.034535	-0.677613	-0.218802	0.046843	-0.606649	-0.193963	0.035692	-0.604877	
505	2.5250	-0.269470	1.337672	-0.526856	-0.196851	1.326411	-0.692378	-0.198145	1.318942	-0.373198	-0.133516	1.276733	-0.530498	-0.148986	0.846714	-0.385286	-0.146180	0.830559	-0.643918	-0.200721	0.902711	-0.370793	-0.197237	0.887856	-0.668668	-0.310398	0.885980	-0.487052	-0.310986	0.880070	-0.552686	-0.316216	0.879608	-0.520488	-0.247348	0.673433	-0.330284	-0.227677	0.617055	-0.326705	-0.165689	0.634397	-0.322455	-0.177170	0.695008	-0.325351	-0.201768	0.424901	-0.339904	-0.186811	0.406568	-0.457306	-0.313326	0.288234	-0.341347	-0.320819	0.248931	-0.347845	-0.271645	0.230489	-0.329962	-0.256467	0.271822	-0.326210	-0.330752	0.100895	-0.357120	-0.308886	0.099447	-0.434322	-0.382089	0.094760	-0.396376	-0.243262	0.032386	-0.324675	-0.201977	0.045002	-0.389864	-0.173503	0.033330	-0.386557	-0.255875	0.669260	-0.688984	-0.235789	0.611186	-0.693833	-0.173173	0.627271	-0.702522	-0.186077	0.685982	-0.699740	-0.197375	0.399621	-0.689087	-0.183444	0.393319	-0.574279	-0.322100	0.251969	-0.684148	-0.336216	0.215983	-0.673082	-0.277957	0.195908	-0.682424	-0.270651	0.237874	-0.693408	-0.337838	0.096373	-0.663388	-0.329718	0.100758	-0.584613	-0.394336	0.100313	-0.617793	-0.253997	0.034615	-0.677401	-0.218627	0.046808	-0.606572	-0.193788	0.035666	-0.604851	
506	2.5300	-0.268994	1.340807	-0.526816	-0.196262	1.329358	-0.692524	-0.197471	1.321584	-0.373269	-0.133009	1.279726	-0.530629	-0.147692	0.850773	-0.385658	-0.145032	0.834605	-0.643546	-0.199154	0.907396	-0.371188	-0.195739	0.892898	-0.668501	-0.309188	0.889434	-0.487007	-0.309833	0.883489	-0.552577	-0.314976	0.882970	-0.520397	-0.247666	0.676837	-0.330969	-0.228390	0.620331	-0.327314	-0.166301	0.637281	-0.322774	-0.177367	0.697944	-0.325708	-0.204278	0.428084	-0.340638	-0.188480	0.409353	-0.457887	-0.315018	0.290488	-0.342744	-0.321828	0.250873	-0.349004	-0.272890	0.233113	-0.330610	-0.258094	0.274528	-0.326982	-0.330278	0.102853	-0.357728	-0.307988	0.101143	-0.434719	-0.381198	0.096816	-0.397161	-0.243231	0.032659	-0.325034	-0.201672	0.044926	-0.389944	-0.173395	0.033350	-0.386519	-0.255831	0.672405	-0.688035	-0.236001	0.614236	-0.692963	-0.173372	0.630073	-0.702037	-0.186034	0.688848	-0.699260	-0.198615	0.402805	-0.687990	-0.185325	0.396433	-0.572907	-0.322625	0.254251	-0.683235	-0.336484	0.218185	-0.672161	-0.278149	0.198461	-0.681708	-0.271123	0.240456	-0.692668	-0.337159	0.098348	-0.663138	-0.328867	0.102306	-0.584367	-0.393379	0.102321	-0.617431	-0.253829	0.034734	-0.677146	-0.218413	0.046763	-0.606519	-0.193618	0.035654	-0.604845	
507	2.5350	-0.268474	1.344823	-0.526714	-0.195647	1.333199	-0.692616	-0.196785	1.325171	-0.373354	-0.132556	1.283618	-0.530768	-0.146333	0.855561	-0.386073	-0.143818	0.839638	-0.643168	-0.197490	0.912685	-0.371625	-0.194043	0.898827	-0.668179	-0.307874	0.893607	-0.486908	-0.308562	0.887634	-0.552438	-0.313633	0.887073	-0.520269	-0.247906	0.681107	-0.331663	-0.229088	0.624462	-0.327914	-0.166887	0.640947	-0.323096	-0.177473	0.701675	-0.326098	-0.207069	0.432149	-0.341279	-0.190106	0.412976	-0.458491	-0.316735	0.293538	-0.344193	-0.322908	0.253580	-0.350286	-0.274221	0.236550	-0.331151	-0.259782	0.278022	-0.327675	-0.329659	0.105490	-0.358070	-0.306701	0.103473	-0.434941	-0.380056	0.099566	-0.397787	-0.243103	0.033011	-0.325388	-0.201314	0.044823	-0.390020	-0.173313	0.033355	-0.386506	-0.255690	0.676547	-0.687117	-0.236236	0.618251	-0.692122	-0.173555	0.633713	-0.701496	-0.185854	0.692572	-0.698707	-0.199981	0.406795	-0.686826	-0.187204	0.400305	-0.571431	-0.323215	0.257129	-0.682286	-0.336733	0.220956	-0.671208	-0.278302	0.201697	-0.681048	-0.271654	0.243739	-0.691978	-0.336279	0.100843	-0.663033	-0.327722	0.104368	-0.584283	-0.392121	0.104927	-0.617178	-0.253580	0.034913	-0.676866	-0.218150	0.046694	-0.606460	-0.193464	0.035650	-0.604835	
508	2.5400	-0.267958	1.349701	-0.526626	-0.195035	1.337859	-0.692645	-0.196133	1.329642	-0.373471	-0.132161	1.288322	-0.530910	-0.144957	0.860906	-0.386486	-0.142550	0.845441	-0.642838	-0.195801	0.918388	-0.372011	-0.192262	0.905288	-0.667748	-0.306449	0.898474	-0.486778	-0.307169	0.892467	-0.552283	-0.312187	0.891871	-0.520120	-0.248055	0.686184	-0.332339	-0.229756	0.629371	-0.328502	-0.167430	0.645330	-0.323409	-0.177475	0.706134	-0.326479	-0.210007	0.437023	-0.341840	-0.191719	0.417437	-0.459137	-0.318404	0.297327	-0.345616	-0.324023	0.257064	-0.351637	-0.275581	0.240750	-0.331577	-0.261566	0.282367	-0.328134	-0.328819	0.108644	-0.358484	-0.304999	0.106357	-0.434957	-0.378541	0.102986	-0.398371	-0.242879	0.033434	-0.325726	-0.200915	0.044698	-0.390084	-0.173281	0.033381	-0.386479	-0.255462	0.681631	-0.686286	-0.236511	0.623178	-0.691347	-0.173731	0.638131	-0.700907	-0.185542	0.697084	-0.698098	-0.201546	0.411480	-0.685641	-0.189069	0.404911	-0.569943	-0.323861	0.260508	-0.681325	-0.336942	0.224219	-0.670243	-0.278405	0.205529	-0.680463	-0.272233	0.247631	-0.691356	-0.335219	0.103839	-0.663049	-0.326309	0.106805	-0.584315	-0.390554	0.108061	-0.617009	-0.253241	0.035160	-0.676567	-0.217816	0.046607	-0.606363	-0.193332	0.035633	-0.604788	
